<svg width="927" height="221" viewBox="0 0 927 221" fill="none" xmlns="http://www.w3.org/2000/svg">
<path d="M35.8438 215.062H37.5999L38.1956 213.41L56.8656 161.625H139.143L158.09 213.421L158.69 215.062H160.438H188.141H191.774L190.476 211.669L112.147 6.91924L111.533 5.3125H109.812H86.1875H84.4661L83.852 6.92064L5.66449 211.671L4.36925 215.062H8H35.8438ZM213.203 212.562V215.062H215.703H286.719C308.851 215.062 326.349 209.718 338.857 198.688C351.388 187.636 357.562 172.468 357.562 153.5C357.562 141.029 354.192 130.178 347.368 121.074C341.829 113.503 334.611 107.956 325.78 104.428C332.942 100.52 338.841 95.4891 343.428 89.3199L343.433 89.3138L343.437 89.3076C349.203 81.4541 352.078 72.4465 352.078 62.375C352.078 43.8233 346.254 29.435 334.289 19.6609C322.5 9.95433 305.14 5.3125 282.641 5.3125H215.703H213.203V7.8125V212.562ZM310.155 84.3566L310.148 84.3617L310.142 84.367C303.677 89.7974 294.88 92.6406 283.484 92.6406H245.203V32.5312H282.641C295.802 32.5312 305.124 35.0757 311.049 39.7314L311.058 39.7383L311.067 39.7451C316.814 44.1784 319.938 51.4625 319.938 62.2344C319.938 71.6946 316.648 78.9737 310.155 84.3566ZM544.793 170.422L544.795 170.417C551.719 155.031 555.141 137.137 555.141 116.797V103.859C555.141 83.6119 551.719 65.7658 544.796 50.3823C537.87 34.8952 527.908 23.0075 514.883 14.8402C501.972 6.59136 487.06 2.5 470.234 2.5C453.671 2.5 438.851 6.64789 425.853 14.9898C412.931 23.2494 402.976 35.177 395.957 50.6551C388.942 66.1284 385.469 83.8818 385.469 103.859V118.625V118.637L385.469 118.649C385.659 138.251 389.229 155.629 396.249 170.726L396.253 170.735L396.257 170.743C403.376 185.751 413.378 197.424 426.279 205.669L426.29 205.676C439.195 213.827 453.964 217.875 470.516 217.875C487.43 217.875 502.346 213.833 515.17 205.672C528.002 197.506 537.867 185.718 544.793 170.422ZM509.155 49.2477L509.16 49.2546C518.456 61.5901 523.281 79.5821 523.281 103.578V118.751C523.001 142.177 518.137 159.806 509.017 171.967C499.979 183.926 487.257 189.953 470.516 189.953C453.931 189.953 441.052 183.599 431.608 170.863C422.184 157.935 417.328 140.004 417.328 116.797V101.766C417.608 79.0245 422.554 61.6179 431.872 49.2546C441.218 36.8824 453.916 30.7031 470.234 30.7031C487.048 30.7031 499.917 36.9018 509.155 49.2477ZM739.781 7.8125V5.3125H737.281H710.141H707.641V7.8125V146.609C707.641 160.956 703.703 171.73 696.138 179.295L696.133 179.3L696.128 179.305C688.676 186.844 677.734 190.797 662.891 190.797C648.25 190.797 637.344 186.852 629.788 179.299C622.217 171.638 618.281 160.81 618.281 146.469V7.8125V5.3125H615.781H589.062H586.562V7.8125V147.312V147.324L586.563 147.335C586.755 169.084 593.711 186.439 607.631 199.085C621.51 211.693 640.022 217.875 662.891 217.875H662.94L662.989 217.873L670.16 217.592L670.202 217.59L670.244 217.587C691.347 216.052 708.278 208.972 720.788 196.169C733.392 183.367 739.685 166.919 739.781 147.043V147.031V7.8125ZM921.359 32.5312H923.859V30.0312V7.8125V5.3125H921.359H763.016H760.516V7.8125V30.0312V32.5312H763.016H826.188V212.562V215.062H828.688H855.547H858.047V212.562V32.5312H921.359ZM66.8317 134.406L98.0047 48.4596L129.304 134.406H66.8317ZM245.203 187.984V119.297H287.703C300.774 119.297 310.11 122.306 316.175 127.883C322.2 133.424 325.422 141.895 325.422 153.781C325.422 164.637 321.979 172.912 315.283 178.921C308.646 184.868 299.414 187.984 287.281 187.984H245.203Z" stroke="white" stroke-width="5"/>
</svg>
