<?xml version="1.0" encoding="UTF-8" standalone="no"?>
<svg
   xmlns:dc="http://purl.org/dc/elements/1.1/"
   xmlns:cc="http://creativecommons.org/ns#"
   xmlns:rdf="http://www.w3.org/1999/02/22-rdf-syntax-ns#"
   xmlns:svg="http://www.w3.org/2000/svg"
   xmlns="http://www.w3.org/2000/svg"
   xmlns:sodipodi="http://sodipodi.sourceforge.net/DTD/sodipodi-0.dtd"
   xmlns:inkscape="http://www.inkscape.org/namespaces/inkscape"
   version="1.1"
   id="Capa_1"
   x="0px"
   y="0px"
   viewBox="0 0 207.5 463"
   xml:space="preserve"
   sodipodi:docname="leftBrain.svg"
   inkscape:version="1.0.1 (3bc2e813f5, 2020-09-07)"
   width="207.5"
   height="463"><metadata
   id="metadata49"><rdf:RDF><cc:Work
       rdf:about=""><dc:format>image/svg+xml</dc:format><dc:type
         rdf:resource="http://purl.org/dc/dcmitype/StillImage" /><dc:title /></cc:Work></rdf:RDF></metadata><defs
   id="defs47" /><sodipodi:namedview
   pagecolor="#ffffff"
   bordercolor="#666666"
   borderopacity="1"
   objecttolerance="10"
   gridtolerance="10"
   guidetolerance="10"
   inkscape:pageopacity="0"
   inkscape:pageshadow="2"
   inkscape:window-width="958"
   inkscape:window-height="1008"
   id="namedview45"
   showgrid="false"
   inkscape:zoom="1.2981442"
   inkscape:cx="321.89182"
   inkscape:cy="241.55576"
   inkscape:window-x="946"
   inkscape:window-y="0"
   inkscape:window-maximized="0"
   inkscape:current-layer="g12"
   inkscape:document-rotation="0" />
<g
   id="g12"
   transform="translate(-24)">
	<path
   d="M 151.245,222.446 C 148.054,237.039 135.036,248 119.5,248 c -4.142,0 -7.5,3.357 -7.5,7.5 0,4.143 3.358,7.5 7.5,7.5 23.774,0 43.522,-17.557 46.966,-40.386 14.556,-1.574 27.993,-8.06 38.395,-18.677 2.899,-2.959 2.85,-7.708 -0.109,-10.606 -2.958,-2.897 -7.707,-2.851 -10.606,0.108 C 184.947,202.829 172.643,208 159.5,208 132.757,208 111,186.243 111,159.5 c 0,-4.143 -3.358,-7.5 -7.5,-7.5 -4.142,0 -7.5,3.357 -7.5,7.5 0,32.215 24.119,58.884 55.245,62.946 z"
   id="path2" />
	<path
   d="m 183,287.5 c 0,-4.143 -3.358,-7.5 -7.5,-7.5 -35.014,0 -63.5,28.486 -63.5,63.5 0,0.362 0.013,0.725 0.019,1.088 C 109.23,344.212 106.39,344 103.5,344 c -4.142,0 -7.5,3.357 -7.5,7.5 0,4.143 3.358,7.5 7.5,7.5 26.743,0 48.5,21.757 48.5,48.5 0,4.143 3.358,7.5 7.5,7.5 4.142,0 7.5,-3.357 7.5,-7.5 0,-26.611 -16.462,-49.437 -39.731,-58.867 -0.178,-1.699 -0.269,-3.418 -0.269,-5.133 0,-26.743 21.757,-48.5 48.5,-48.5 4.142,0 7.5,-3.357 7.5,-7.5 z"
   id="path4" />
	<path
   id="path6"
   d="M 231.5,16.384766 C 224.317,6.4687652 212.653,0 199.5,0 175.838,0 145.00164,13.383844 116.80664,35.839844 99.883642,43.113844 88,59.943 88,79.5 88,85.628 89.159531,91.600875 91.394531,97.171875 62.152531,102.84188 40,128.626 40,159.5 c 0,6.418 0.965,12.73475 2.875,18.84375 C 30.82,190.24375 24,206.425 24,223.5 c 0,13.348 4.148891,25.74061 11.212891,35.97461 C 27.871891,270.08661 24,282.466 24,295.5 24,318.588 36.586625,339.74248 56.515625,350.89648 56.172625,353.74848 56,356.626 56,359.5 c 0,31.144 20.314065,58.6785 49.78906,68.0625 C 118.61006,449.5045 141.965,463 167.5,463 c 27.995,0 52.269,-16.18083 64,-39.67383 z M 199.5,15 c 13.509,0 24.5,10.99 24.5,24.5 v 97.05078 C 217.261,131.20478 208.75,128 199.5,128 c -4.142,0 -7.5,3.357 -7.5,7.5 0,4.143 3.358,7.5 7.5,7.5 13.509,0 24.5,10.99 24.5,24.5 v 180.2793 c -9.325,-12.031 -22.47155,-21.11063 -37.93555,-25.26563 -3.999,-1.071 -8.1125,1.29688 -9.1875,5.29688 -1.075,4.001 1.29688,8.1135 5.29688,9.1875 C 206.80083,343.61505 224,366.027 224,391.5 c 0,31.154 -25.346,56.5 -56.5,56.5 -21.029,0 -40.19177,-11.59386 -50.00977,-30.25586 -0.973,-1.849 -2.6705,-3.20895 -4.6875,-3.75195 C 88.189738,407.36819 71,384.961 71,359.5 c 0,-3.81 0.383625,-7.62575 1.140625,-11.34375 0.702,-3.447 -1.085781,-6.91961 -4.300781,-8.34961 C 50.320844,332.01864 39,314.626 39,295.5 39,286.801 41.255547,278.48609 45.560547,271.12109 56.756547,280.99209 71.436,287 87.5,287 91.642,287 95,283.643 95,279.5 95,275.357 91.642,272 87.5,272 60.757,272 39,250.243 39,223.5 c 0,-14.396 6.351734,-27.9637 17.427734,-37.2207 2.5,-2.09 3.365625,-5.55522 2.140625,-8.57422 C 56.200359,171.86908 55,165.744 55,159.5 55,132.757 76.757,111 103.5,111 c 26.743,0 48.5,21.757 48.5,48.5 0,4.143 3.358,7.5 7.5,7.5 4.142,0 7.5,-3.357 7.5,-7.5 C 167,125.858 140.69713,98.256531 107.57812,96.144531 104.57613,91.126531 103,85.421 103,79.5 c 0,-13.369 8.11573,-24.875375 19.67773,-29.859375 0.447,-0.133 0.8856,-0.307344 1.3086,-0.527344 C 127.56833,47.751281 131.447,47 135.5,47 c 12.557,0 23.76686,7.020219 29.25586,18.324219 1.81,3.727 6.29844,5.281703 10.02344,3.470703 3.726,-1.809 5.27875,-6.295485 3.46875,-10.021484 -6.266,-12.903 -18.12425,-22.177891 -31.78125,-25.462891 C 165.6088,21.630547 184.454,15 199.5,15 Z" />
	
	
</g>
<g
   id="g14"
   transform="translate(-24)">
</g>
<g
   id="g16"
   transform="translate(-24)">
</g>
<g
   id="g18"
   transform="translate(-24)">
</g>
<g
   id="g20"
   transform="translate(-24)">
</g>
<g
   id="g22"
   transform="translate(-24)">
</g>
<g
   id="g24"
   transform="translate(-24)">
</g>
<g
   id="g26"
   transform="translate(-24)">
</g>
<g
   id="g28"
   transform="translate(-24)">
</g>
<g
   id="g30"
   transform="translate(-24)">
</g>
<g
   id="g32"
   transform="translate(-24)">
</g>
<g
   id="g34"
   transform="translate(-24)">
</g>
<g
   id="g36"
   transform="translate(-24)">
</g>
<g
   id="g38"
   transform="translate(-24)">
</g>
<g
   id="g40"
   transform="translate(-24)">
</g>
<g
   id="g42"
   transform="translate(-24)">
</g>
</svg>
