<svg version="1.1" viewBox="0.0 0.0 724.1049868766404 226.33595800524935" fill="none" stroke="none" stroke-linecap="square" stroke-miterlimit="10" xmlns:xlink="http://www.w3.org/1999/xlink" xmlns="http://www.w3.org/2000/svg"><clipPath id="p.0"><path d="m0 0l724.105 0l0 226.33595l-724.105 0l0 -226.33595z" clip-rule="nonzero"/></clipPath><g clip-path="url(#p.0)"><path fill="#000000" fill-opacity="0.0" d="m0 0l724.105 0l0 226.33595l-724.105 0z" fill-rule="evenodd"/><path fill="#000000" fill-opacity="0.0" d="m49.225723 75.8399l688.3465 0l0 155.3071l-688.3465 0z" fill-rule="evenodd"/><path fill="#000000" d="m78.464584 133.6249l-0.09375 -16.328125q0 -1.984375 -1.1875 -3.828125q-1.171875 -1.84375 -3.8125 -1.84375q-3.921875 0 -3.921875 -3.25q0 -3.53125 4.171875 -3.53125l3.609375 -0.09375l5.765625 0.28125l15.796875 -0.28125q9.65625 0 16.875 5.03125q7.21875 5.03125 7.21875 14.625q0 5.140625 -1.921875 9.234375q-1.90625 4.09375 -4.625 6.4375q-2.703125 2.34375 -6.046875 3.90625q-5.296875 2.390625 -9.46875 2.390625q-4.15625 0 -8.21875 -0.921875q-4.046875 -0.921875 -4.046875 -3.28125q0 -3.4375 3.234375 -3.4375q0.734375 0 2.21875 0.390625q1.5 0.375 3.0625 0.375q1.578125 0 3.84375 -0.5625q2.265625 -0.578125 4.59375 -1.78125q2.34375 -1.203125 3.78125 -3.5625q1.4375 -2.359375 1.4375 -5.53125q0 -5.640625 -4.625 -10.5625q-4.609375 -4.921875 -12.859375 -4.921875q-1.84375 0 -2.46875 1.0625q-0.625 1.046875 -0.625 6.734375l-0.1875 39.65625q0 9.34375 4.75 9.90625q1.53125 0.1875 2.375 0.1875q4.78125 -0.359375 4.78125 3.921875q0 3.625 -4.25 3.625l-13.671875 -0.484375l-8.90625 0.390625q-5.015625 0 -5.015625 -3.0625q0 -3.015625 2.34375 -3.890625q0.390625 -0.15625 0.65625 -0.28125q0.28125 -0.125 1.03125 -0.28125q0.765625 -0.15625 1.046875 -0.265625q0.28125 -0.109375 0.6875 -0.15625q0.40625 -0.046875 0.3125 0.015625q-0.078125 0.046875 -0.09375 0.03125q-0.015625 -0.03125 0.0625 -0.21875q0.09375 -0.1875 0.40625 -0.875q0.3125 -0.6875 0.765625 -1.984375q0.46875 -1.296875 0.84375 -13.703125q0.375 -12.40625 0.375 -19.28125zm48.753113 8.53125l-1.046875 -0.09375q-3.734375 0 -3.734375 -3.546875q0 -2.390625 1.953125 -3.1875q1.953125 -0.796875 5.4375 -1.890625q3.5 -1.109375 5.65625 -2.078125q2.15625 -0.984375 2.96875 -0.984375q3.25 0 3.25 3.953125l-0.09375 2.59375q0 2.78125 -0.53125 2.984375q-0.515625 0.1875 -0.75 0.21875q-0.234375 0.03125 0.484375 -2.125q0.734375 -2.15625 3.421875 -4.453125q2.703125 -2.3125 5.625 -2.3125q2.921875 0 6.015625 2.046875q3.109375 2.046875 3.109375 4.4375q0 2.390625 -1.03125 4.203125q-1.9375 3.296875 -4.234375 3.296875q-1.3125 0 -3.28125 -1.140625q-1.96875 -1.15625 -3.90625 -1.15625q-1.921875 0 -3.578125 1.546875q-1.640625 1.546875 -1.640625 2.40625l0 9.96875l0.109375 8.296875l0.09375 1.75q0 1.265625 0.84375 2.171875q0.84375 0.90625 1.671875 1.046875q0.828125 0.125 1.65625 0.21875q0.84375 0.09375 1.4375 0.15625q0.59375 0.046875 1.25 0.28125q2.546875 0.453125 2.546875 3.484375q0 3.03125 -3.21875 3.03125l-8.109375 -0.46875l-9.921875 0.46875q-3.03125 0 -3.59375 -1.140625q-0.5625 -1.15625 -0.5625 -2.0q0 -2.71875 2.71875 -3.578125q1.421875 -0.328125 1.75 -1.484375q0.328125 -1.171875 0.328125 -7.03125l-0.09375 -15.4375l-0.09375 -2.875q0 -0.671875 -0.140625 -0.96875q-0.25 -0.609375 -2.765625 -0.609375zm56.23436 36.578125q-10.640625 0 -17.015625 -6.890625q-6.359375 -6.90625 -6.359375 -16.421875q0 -9.515625 6.5625 -16.65625q6.5625 -7.140625 17.203125 -7.140625q10.640625 0 17.9375 6.203125q7.3125 6.203125 7.3125 17.203125q0 11.0 -7.5 17.359375q-7.484375 6.34375 -18.140625 6.34375zm-1.03125 -40.515625q-4.15625 0 -7.46875 3.359375q-3.296875 3.34375 -3.296875 11.578125q0 8.21875 4.71875 13.453125q4.734375 5.234375 9.9375 5.234375q5.203125 0 8.390625 -3.546875q3.1875 -3.5625 3.1875 -10.921875q0 -7.375 -4.125 -13.265625q-4.125 -5.890625 -11.34375 -5.890625zm34.031982 3.171875l-1.828125 0.09375q-3.671875 0 -3.671875 -3.34375q0 -1.9375 1.6875 -3.265625q3.4375 -2.25 6.84375 -6.75q1.59375 -2.28125 2.84375 -3.65625q1.25 -1.390625 3.65625 -1.390625q2.40625 0 2.40625 4.28125q0 0 -0.390625 5.484375q0 0.078125 -0.21875 -0.03125q-0.203125 -0.125 2.15625 -0.125l3.359375 0q3.84375 0 4.390625 -0.265625q2.15625 -1.078125 3.015625 -1.078125q2.953125 0 2.953125 3.046875q0 1.28125 -1.671875 4.28125q-1.65625 3.0 -3.40625 3.0q-4.421875 0 -6.1875 -0.203125q-1.765625 -0.203125 -2.34375 -0.25q-0.578125 -0.046875 -0.96875 -0.078125q-0.390625 -0.046875 -0.953125 -0.046875l0.078125 -1.234375q-0.734375 1.140625 -0.703125 1.109375q0.03125 -0.046875 0.03125 1.21875l-0.390625 17.859375q0 5.625 1.125 7.375q1.140625 1.734375 5.140625 1.734375q1.65625 0 4.09375 -0.90625q2.453125 -0.90625 3.0 -0.90625q2.96875 0 2.96875 2.796875q0 2.796875 -4.03125 5.3125q-4.015625 2.5 -8.4375 2.5q-14.953125 0 -14.953125 -13.21875l0 -1.46875l0.375 -22.359375q0.109375 0 0.34375 0.25q0.234375 0.234375 -0.3125 0.234375zm32.831985 0l-1.828125 0.09375q-3.671875 0 -3.671875 -3.34375q0 -1.9375 1.6875 -3.265625q3.4375 -2.25 6.84375 -6.75q1.59375 -2.28125 2.84375 -3.65625q1.2499847 -1.390625 3.6562347 -1.390625q2.40625 0 2.40625 4.28125q0 0 -0.390625 5.484375q0 0.078125 -0.21875 -0.03125q-0.203125 -0.125 2.15625 -0.125l3.359375 0q3.84375 0 4.390625 -0.265625q2.15625 -1.078125 3.015625 -1.078125q2.953125 0 2.953125 3.046875q0 1.28125 -1.671875 4.28125q-1.65625 3.0 -3.40625 3.0q-4.421875 0 -6.1875 -0.203125q-1.765625 -0.203125 -2.34375 -0.25q-0.578125 -0.046875 -0.96875 -0.078125q-0.390625 -0.046875 -0.953125 -0.046875l0.078125 -1.234375q-0.734375 1.140625 -0.703125 1.109375q0.03125 -0.046875 0.03125 1.21875l-0.390625 17.859375q0 5.625 1.125 7.375q1.140625 1.734375 5.140625 1.734375q1.65625 0 4.09375 -0.90625q2.453125 -0.90625 3.0 -0.90625q2.96875 0 2.96875 2.796875q0 2.796875 -4.03125 5.3125q-4.015625 2.5 -8.4375 2.5q-14.95311 0 -14.95311 -13.21875l0 -1.46875l0.375 -22.359375q0.109375 0 0.34375 0.25q0.234375 0.234375 -0.3125 0.234375zm42.675735 37.046875q-13.328125 0 -13.328125 -11.59375q0 -8.21875 6.96875 -11.328125q5.03125 -2.140625 15.0 -3.78125q0.34375 -0.109375 0.890625 -0.15625q0.546875 -0.0625 0.96875 -0.140625q0.421875 -0.078125 0.5 -0.109375q0.265625 0.859375 -0.625 0.484375l0.203125 -4.984375q0 -4.4375 -2.515625 -6.375q-2.515625 -1.953125 -4.796875 -1.953125q-4.921875 0 -4.921875 3.65625l0.390625 3.453125q0 4.03125 -3.734375 4.03125q-1.640625 0 -3.5625 -0.578125q-4.390625 -1.40625 -4.390625 -5.171875q0 -4.796875 5.734375 -8.671875q5.75 -3.875 11.296875 -3.875q5.5625 0 8.78125 1.0625q3.21875 1.0625 4.953125 2.5625q1.734375 1.5 2.671875 3.984375q1.09375 2.75 1.09375 8.109375q0 5.34375 -0.234375 9.328125q-0.234375 3.984375 -0.234375 7.046875q0 3.046875 0.5625 4.59375q0.578125 1.546875 1.125 1.84375q0.546875 0.296875 1.171875 0.34375q4.4375 0.328125 4.4375 3.53125q0 4.015625 -8.0625 4.015625q-3.15625 0 -5.359375 -1.65625q-2.203125 -1.671875 -2.3125 -3.484375q-0.09375 -1.8125 0 -1.734375q0.09375 0.078125 -0.046875 1.234375q-0.125 1.15625 -1.421875 2.09375q-1.296875 0.9375 -2.90625 1.84375q-4.0 2.375 -8.296875 2.375zm11.890625 -21.40625l-0.765625 0.15625q-2.25 0.390625 -2.796875 0.484375q-0.546875 0.09375 -2.53125 0.546875q-1.96875 0.453125 -2.671875 0.78125q-0.6875 0.3125 -1.96875 1.015625q-1.265625 0.6875 -1.625 1.171875q-1.375 2.125 -1.375 4.390625q0 2.265625 1.34375 3.640625q1.34375 1.375 3.734375 1.375q2.40625 0 3.78125 -0.59375q1.390625 -0.59375 1.953125 -1.21875q0.578125 -0.640625 0.921875 -1.84375q0.484375 -1.546875 0.484375 -4.125l0 -6.921875q1.328125 -0.1875 1.515625 1.140625zm49.91223 -20.59375l0.390625 5.765625q0 2.296875 -0.84375 3.578125q-0.84375 1.265625 -2.6875 1.265625q-1.828125 0 -2.9375 -1.875q-1.09375 -1.875 -1.96875 -3.296875q-0.875 -1.421875 -2.6875 -2.53125q-1.8125 -1.125 -4.078125 -1.125q-2.25 0 -3.421875 0.890625q-1.15625 0.875 -1.15625 1.875q0 1.0 0.1875 1.640625q0.1875 0.640625 0.71875 1.21875q0.546875 0.578125 0.9375 0.96875q0.40625 0.390625 1.453125 0.890625q1.046875 0.484375 1.640625 0.71875q0.59375 0.21875 2.03125 0.78125q9.203125 3.25 12.109375 6.671875q2.90625 3.40625 2.90625 9.6875q0 6.28125 -5.765625 11.5q-4.046875 3.46875 -10.828125 3.46875q-4.5 0 -9.953125 -2.15625q-1.28125 -0.515625 -1.5 -0.546875q-0.203125 -0.046875 -0.734375 -0.234375q-0.53125 -0.1875 -0.84375 -0.25q-0.296875 -0.0625 -0.953125 -0.390625q-0.640625 -0.328125 -0.96875 -0.640625q-0.3125 -0.328125 -0.65625 -0.84375q-0.59375 -1.015625 -0.59375 -2.59375l0 -8.359375q0 -1.59375 0.859375 -3.03125q0.859375 -1.453125 2.6875 -1.453125q1.828125 0 2.609375 1.0q0.78125 1.0 1.078125 2.4375q0.3125 1.4375 0.53125 1.859375q3.078125 7.65625 8.15625 7.65625q2.421875 0 4.375 -1.15625q1.96875 -1.15625 1.96875 -3.5625q0 -2.40625 -1.75 -4.078125q-1.75 -1.6875 -4.75 -2.8125q-2.984375 -1.140625 -6.390625 -2.53125q-3.390625 -1.390625 -6.0 -4.390625q-2.609375 -3.0 -2.609375 -7.59375q0 -6.375 4.984375 -10.140625q4.984375 -3.765625 10.65625 -3.765625q5.671875 0 8.796875 0.953125q3.140625 0.9375 4.0625 2.140625q0.9375 1.1875 0.9375 2.390625zm33.62909 -2.8125l-0.09375 -16.328125q0 -1.984375 -1.1875 -3.828125q-1.171875 -1.84375 -3.8125 -1.84375q-3.921875 0 -3.921875 -3.25q0 -3.53125 4.171875 -3.53125l3.609375 -0.09375l5.765625 0.28125l15.796875 -0.28125q9.65625 0 16.875 5.03125q7.21875 5.03125 7.21875 14.625q0 5.140625 -1.921875 9.234375q-1.90625 4.09375 -4.625 6.4375q-2.703125 2.34375 -6.046875 3.90625q-5.296875 2.390625 -9.46875 2.390625q-4.15625 0 -8.21875 -0.921875q-4.046875 -0.921875 -4.046875 -3.28125q0 -3.4375 3.234375 -3.4375q0.734375 0 2.21875 0.390625q1.5 0.375 3.0625 0.375q1.578125 0 3.84375 -0.5625q2.265625 -0.578125 4.59375 -1.78125q2.34375 -1.203125 3.78125 -3.5625q1.4375 -2.359375 1.4375 -5.53125q0 -5.640625 -4.625 -10.5625q-4.609375 -4.921875 -12.859375 -4.921875q-1.84375 0 -2.46875 1.0625q-0.625 1.046875 -0.625 6.734375l-0.1875 39.65625q0 9.34375 4.75 9.90625q1.53125 0.1875 2.375 0.1875q4.78125 -0.359375 4.78125 3.921875q0 3.625 -4.25 3.625l-13.671875 -0.484375l-8.90625 0.390625q-5.015625 0 -5.015625 -3.0625q0 -3.015625 2.34375 -3.890625q0.390625 -0.15625 0.65625 -0.28125q0.28125 -0.125 1.03125 -0.28125q0.765625 -0.15625 1.046875 -0.265625q0.28125 -0.109375 0.6875 -0.15625q0.40625 -0.046875 0.3125 0.015625q-0.078125 0.046875 -0.09375 0.03125q-0.015625 -0.03125 0.0625 -0.21875q0.09375 -0.1875 0.40625 -0.875q0.3125 -0.6875 0.765625 -1.984375q0.46875 -1.296875 0.84375 -13.703125q0.375 -12.40625 0.375 -19.28125zm59.799988 44.8125q-13.328125 0 -13.328125 -11.59375q0 -8.21875 6.96875 -11.328125q5.03125 -2.140625 15.0 -3.78125q0.34375 -0.109375 0.890625 -0.15625q0.546875 -0.0625 0.96875 -0.140625q0.421875 -0.078125 0.5 -0.109375q0.265625 0.859375 -0.625 0.484375l0.203125 -4.984375q0 -4.4375 -2.515625 -6.375q-2.515625 -1.953125 -4.796875 -1.953125q-4.921875 0 -4.921875 3.65625l0.390625 3.453125q0 4.03125 -3.734375 4.03125q-1.640625 0 -3.5625 -0.578125q-4.390625 -1.40625 -4.390625 -5.171875q0 -4.796875 5.734375 -8.671875q5.75 -3.875 11.296875 -3.875q5.5625 0 8.78125 1.0625q3.21875 1.0625 4.953125 2.5625q1.734375 1.5 2.671875 3.984375q1.09375 2.75 1.09375 8.109375q0 5.34375 -0.234375 9.328125q-0.234375 3.984375 -0.234375 7.046875q0 3.046875 0.5625 4.59375q0.578125 1.546875 1.125 1.84375q0.546875 0.296875 1.171875 0.34375q4.4375 0.328125 4.4375 3.53125q0 4.015625 -8.0625 4.015625q-3.15625 0 -5.359375 -1.65625q-2.203125 -1.671875 -2.3125 -3.484375q-0.09375 -1.8125 0 -1.734375q0.09375 0.078125 -0.046875 1.234375q-0.125 1.15625 -1.421875 2.09375q-1.296875 0.9375 -2.90625 1.84375q-4.0 2.375 -8.296875 2.375zm11.890625 -21.40625l-0.765625 0.15625q-2.25 0.390625 -2.796875 0.484375q-0.546875 0.09375 -2.53125 0.546875q-1.96875 0.453125 -2.671875 0.78125q-0.6875 0.3125 -1.96875 1.015625q-1.265625 0.6875 -1.625 1.171875q-1.375 2.125 -1.375 4.390625q0 2.265625 1.34375 3.640625q1.34375 1.375 3.734375 1.375q2.40625 0 3.78125 -0.59375q1.390625 -0.59375 1.953125 -1.21875q0.578125 -0.640625 0.921875 -1.84375q0.484375 -1.546875 0.484375 -4.125l0 -6.921875q1.328125 -0.1875 1.515625 1.140625zm31.693481 20.359375l-6.78125 0.1875q-5.875 0 -5.875 -3.015625q0 -3.015625 3.109375 -4.0625q0.328125 1.390625 0.09375 0q1.34375 -0.46875 1.75 -1.40625q0.421875 -0.953125 0.421875 -13.875l0 -8.4375q0 -2.40625 -0.484375 -3.5625q-0.484375 -1.171875 -0.640625 -1.265625q-0.140625 -0.09375 -1.421875 -0.3125q-1.265625 -0.21875 -2.625 -0.734375q-1.359375 -0.53125 -1.359375 -2.125q0 -1.59375 0.625 -2.3125q0.625 -0.71875 1.5625 -1.15625q0.953125 -0.453125 1.859375 -0.796875q2.640625 -0.765625 4.3125 -1.5q1.671875 -0.75 2.5 -1.09375q0.84375 -0.34375 1.140625 -0.546875q1.21875 -0.515625 2.578125 -0.515625q3.4375 0 3.4375 3.953125l-0.578125 4.59375l0 26.1875q0 2.359375 0.609375 3.453125q0.609375 1.078125 1.140625 1.28125q0.53125 0.203125 1.6875 0.296875q1.171875 0.078125 1.625 0.078125q3.203125 0.453125 3.203125 3.34375q0 3.625 -3.703125 3.625l-1.46875 -0.09375l-6.71875 -0.1875zm-1.640625 -51.5625q-2.953125 0 -4.828125 -2.703125q-1.875 -2.703125 -1.875 -4.671875q0 -1.96875 2.203125 -4.671875q2.203125 -2.703125 4.671875 -2.703125q2.484375 0 4.40625 2.640625q1.9375 2.640625 1.9375 4.921875q0 2.265625 -2.40625 4.734375q-2.390625 2.453125 -4.109375 2.453125zm37.389038 51.171875l-7.015625 -0.390625q-2.390625 0 -6.46875 0.203125l-4.1719055 0.1875q-3.484375 0 -3.484375 -2.546875q0 -2.546875 1.21875 -3.03125q1.234375 -0.484375 1.828125 -0.5625q0.59375 -0.078125 0.90625 -0.296875q0.96875 -0.625 1.140625 -5.875q0.1875 -5.265625 0.1875 -7.0625l0 -13.828125q0 -2.21875 -0.515625 -2.703125q-0.5 -0.484375 -1.609375 -0.484375l-0.96875 0q-3.828125 0 -3.828125 -3.046875q0 -2.71875 2.859375 -3.109375q2.875 -0.390625 3.9375 -0.6875q1.078125 -0.296875 2.9687805 -1.078125q1.890625 -0.796875 3.265625 -1.453125q1.390625 -0.671875 2.21875 -0.671875l0.203125 0q2.859375 0 2.859375 3.203125l-0.1875 4.125q-1.234375 1.6875 -1.546875 1.453125q-0.296875 -0.25 -0.921875 -0.6875q1.6875 -2.3125 4.40625 -3.953125q4.796875 -2.984375 9.203125 -2.984375q4.40625 0 7.859375 1.359375q3.453125 1.34375 5.4375 3.390625q1.984375 2.03125 3.296875 4.609375q2.109375 4.265625 2.109375 8.765625l0 0.953125l0.109375 5.078125l0 9.8125q0 3.0 0.5625 3.796875q0.578125 0.78125 3.578125 1.234375q3.625 0.53125 3.625 3.421875q0 2.953125 -3.984375 2.953125l-7.8125 -0.484375l-7.34375 0.390625q-3.953125 0 -3.953125 -3.25q0 -2.40625 2.671875 -3.09375l1.1875 -0.28125q0.640625 -0.203125 0.640625 -4.5l0 -12.953125q0 -6.578125 -3.078125 -9.78125q-3.078125 -3.203125 -6.9375 -3.203125q-3.84375 0 -6.40625 1.84375q-2.5625 1.828125 -3.078125 3.296875q-0.5 1.46875 -0.5 13.890625l0 3.640625q0 4.390625 0.6875 5.96875q0.6875 1.5625 2.875 1.734375q1.09375 0 3.46875 0.546875q2.375 0.53125 2.375 2.890625q0 3.25 -3.875 3.25zm38.11969 -35.609375l-1.828125 0.09375q-3.671875 0 -3.671875 -3.34375q0 -1.9375 1.6875 -3.265625q3.4375 -2.25 6.84375 -6.75q1.59375 -2.28125 2.84375 -3.65625q1.25 -1.390625 3.65625 -1.390625q2.40625 0 2.40625 4.28125q0 0 -0.390625 5.484375q0 0.078125 -0.21875 -0.03125q-0.203125 -0.125 2.15625 -0.125l3.359375 0q3.84375 0 4.390625 -0.265625q2.15625 -1.078125 3.015625 -1.078125q2.953125 0 2.953125 3.046875q0 1.28125 -1.671875 4.28125q-1.65625 3.0 -3.40625 3.0q-4.421875 0 -6.1875 -0.203125q-1.765625 -0.203125 -2.34375 -0.25q-0.578125 -0.046875 -0.96875 -0.078125q-0.390625 -0.046875 -0.953125 -0.046875l0.078125 -1.234375q-0.734375 1.140625 -0.703125 1.109375q0.03125 -0.046875 0.03125 1.21875l-0.390625 17.859375q0 5.625 1.125 7.375q1.140625 1.734375 5.140625 1.734375q1.65625 0 4.09375 -0.90625q2.453125 -0.90625 3.0 -0.90625q2.96875 0 2.96875 2.796875q0 2.796875 -4.03125 5.3125q-4.015625 2.5 -8.4375 2.5q-14.953125 0 -14.953125 -13.21875l0 -1.46875l0.375 -22.359375q0.109375 0 0.34375 0.25q0.234375 0.234375 -0.3125 0.234375zm42.003906 36.0l-6.78125 0.1875q-5.875 0 -5.875 -3.015625q0 -3.015625 3.109375 -4.0625q0.328125 1.390625 0.09375 0q1.34375 -0.46875 1.75 -1.40625q0.421875 -0.953125 0.421875 -13.875l0 -8.4375q0 -2.40625 -0.484375 -3.5625q-0.484375 -1.171875 -0.640625 -1.265625q-0.140625 -0.09375 -1.421875 -0.3125q-1.265625 -0.21875 -2.625 -0.734375q-1.359375 -0.53125 -1.359375 -2.125q0 -1.59375 0.625 -2.3125q0.625 -0.71875 1.5625 -1.15625q0.953125 -0.453125 1.859375 -0.796875q2.640625 -0.765625 4.3125 -1.5q1.671875 -0.75 2.5 -1.09375q0.84375 -0.34375 1.140625 -0.546875q1.21875 -0.515625 2.578125 -0.515625q3.4375 0 3.4375 3.953125l-0.578125 4.59375l0 26.1875q0 2.359375 0.609375 3.453125q0.609375 1.078125 1.140625 1.28125q0.53125 0.203125 1.6875 0.296875q1.171875 0.078125 1.625 0.078125q3.203125 0.453125 3.203125 3.34375q0 3.625 -3.703125 3.625l-1.46875 -0.09375l-6.71875 -0.1875zm-1.640625 -51.5625q-2.953125 0 -4.828125 -2.703125q-1.875 -2.703125 -1.875 -4.671875q0 -1.96875 2.203125 -4.671875q2.203125 -2.703125 4.671875 -2.703125q2.484375 0 4.40625 2.640625q1.9375 2.640625 1.9375 4.921875q0 2.265625 -2.40625 4.734375q-2.390625 2.453125 -4.109375 2.453125zm37.388916 51.171875l-7.015625 -0.390625q-2.390625 0 -6.46875 0.203125l-4.171875 0.1875q-3.484375 0 -3.484375 -2.546875q0 -2.546875 1.21875 -3.03125q1.234375 -0.484375 1.828125 -0.5625q0.59375 -0.078125 0.90625 -0.296875q0.96875 -0.625 1.140625 -5.875q0.1875 -5.265625 0.1875 -7.0625l0 -13.828125q0 -2.21875 -0.515625 -2.703125q-0.5 -0.484375 -1.609375 -0.484375l-0.96875 0q-3.828125 0 -3.828125 -3.046875q0 -2.71875 2.859375 -3.109375q2.875 -0.390625 3.9375 -0.6875q1.078125 -0.296875 2.96875 -1.078125q1.890625 -0.796875 3.265625 -1.453125q1.390625 -0.671875 2.21875 -0.671875l0.203125 0q2.859375 0 2.859375 3.203125l-0.1875 4.125q-1.234375 1.6875 -1.546875 1.453125q-0.296875 -0.25 -0.921875 -0.6875q1.6875 -2.3125 4.40625 -3.953125q4.796875 -2.984375 9.203125 -2.984375q4.40625 0 7.859375 1.359375q3.453125 1.34375 5.4375 3.390625q1.984375 2.03125 3.296875 4.609375q2.109375 4.265625 2.109375 8.765625l0 0.953125l0.109375 5.078125l0 9.8125q0 3.0 0.5625 3.796875q0.578125 0.78125 3.578125 1.234375q3.625 0.53125 3.625 3.421875q0 2.953125 -3.984375 2.953125l-7.8125 -0.484375l-7.34375 0.390625q-3.953125 0 -3.953125 -3.25q0 -2.40625 2.671875 -3.09375l1.1875 -0.28125q0.640625 -0.203125 0.640625 -4.5l0 -12.953125q0 -6.578125 -3.078125 -9.78125q-3.078125 -3.203125 -6.9375 -3.203125q-3.84375 0 -6.40625 1.84375q-2.5625 1.828125 -3.078125 3.296875q-0.5 1.46875 -0.5 13.890625l0 3.640625q0 4.390625 0.6875 5.96875q0.6875 1.5625 2.875 1.734375q1.09375 0 3.46875 0.546875q2.375 0.53125 2.375 2.890625q0 3.25 -3.875 3.25zm44.99475 18.96875q-4.078125 -0.890625 -7.65625 -3.84375q-3.5625 -2.9375 -3.5625 -7.078125q0 -4.140625 2.125 -6.328125q2.125 -2.1875 4.0625 -2.46875q1.9375 -0.296875 1.8125 -0.046875q-0.109375 0.234375 -0.6875 0.421875q-0.5625 0.171875 -1.234375 -0.3125q-2.34375 -1.890625 -2.34375 -5.5625q0 -3.6875 1.46875 -6.171875q1.484375 -2.5 2.78125 -3.234375q1.296875 -0.75 1.296875 -0.40625q0 0.328125 -0.9375 -0.109375q-0.9375 -0.4375 -2.375 -1.703125q-1.4375 -1.28125 -2.609375 -4.21875q-1.15625 -2.953125 -1.15625 -6.125q0 -3.1875 0.8125 -5.71875q0.8125 -2.546875 2.734375 -5.359375q1.921875 -2.8125 5.875 -4.53125q3.96875 -1.734375 8.609375 -1.734375q4.65625 0 7.65625 1.078125q3.0 1.0625 4.140625 1.90625q1.140625 0.84375 1.1875 0.84375q0.046875 0 3.796875 -1.5625q0.515625 -0.21875 1.265625 -2.484375q0.765625 -2.28125 2.984375 -2.28125q3.234375 0 3.234375 2.765625q0 2.5625 -0.75 5.484375q-0.734375 2.90625 -1.953125 4.796875q-1.21875 1.890625 -2.796875 2.546875q0.515625 1.40625 0.515625 3.6875q0 7.015625 -5.21875 11.8125q-5.21875 4.78125 -12.625 4.78125q-2.6875 0 -4.9375 -0.4375q-2.25 -0.4375 -2.46875 -0.4375q-0.21875 0 -0.59375 0.09375q-0.375 0.09375 -1.046875 0.765625q-0.65625 0.65625 -0.65625 1.84375q0 1.765625 2.109375 2.390625q2.109375 0.609375 8.75 0.609375l4.40625 0q15.921875 0 15.921875 10.453125q0 3.390625 -0.828125 5.265625q-2.078125 5.390625 -8.296875 8.453125q-6.21875 3.0625 -14.1875 3.0625q-4.53125 0 -8.625 -0.90625zm-1.65625 -12.234375q0 3.09375 2.828125 4.8125q2.84375 1.734375 7.875 1.734375q5.046875 0 9.046875 -2.0625q4.0 -2.046875 4.0 -4.671875q0 -1.90625 -1.828125 -2.390625q-2.34375 -0.515625 -6.828125 -0.515625l-0.875 0q-3.21875 0 -7.78125 -0.6875l-4.171875 -0.65625q0.078125 0 -1.09375 1.296875q-1.171875 1.3125 -1.171875 3.140625zm10.9375 -46.1875q-3.078125 0 -5.046875 2.390625q-1.953125 2.375 -1.953125 7.359375q0 4.984375 2.25 8.140625q2.25 3.15625 5.4375 3.15625q3.1875 0 5.015625 -2.625q1.828125 -2.625 1.828125 -7.09375q0 -4.484375 -2.234375 -7.90625q-2.21875 -3.421875 -5.296875 -3.421875z" fill-rule="nonzero"/><g filter="url(#shadowFilter-p.1)"><use xlink:href="#p.1" transform="matrix(1.0 0.0 0.0 1.0 0.0 2.0)"/></g><defs><filter id="shadowFilter-p.1" filterUnits="userSpaceOnUse"><feGaussianBlur in="SourceAlpha" stdDeviation="2.0" result="blur"/><feComponentTransfer in="blur" color-interpolation-filters="sRGB"><feFuncR type="linear" slope="0" intercept="0.0"/><feFuncG type="linear" slope="0" intercept="0.0"/><feFuncB type="linear" slope="0" intercept="0.0"/><feFuncA type="linear" slope="0.5" intercept="0"/></feComponentTransfer></filter></defs><g id="p.1"><path fill="#000000" fill-opacity="0.0" d="m41.965878 68.55643l688.34644 0l0 108.47244l-688.34644 0z" fill-rule="evenodd"/><path fill="#ffffff" d="m71.20474 126.34142l-0.09375 -16.328125q0 -1.984375 -1.1875 -3.828125q-1.171875 -1.84375 -3.8125 -1.84375q-3.9218788 0 -3.9218788 -3.25q0 -3.53125 4.171879 -3.53125l3.609375 -0.09375l5.765625 0.28125l15.796875 -0.28125q9.65625 0 16.875 5.03125q7.21875 5.03125 7.21875 14.625q0 5.140625 -1.921875 9.234375q-1.90625 4.0937576 -4.625 6.4375076q-2.703125 2.34375 -6.046875 3.90625q-5.296875 2.390625 -9.46875 2.390625q-4.15625 0 -8.21875 -0.921875q-4.046875 -0.921875 -4.046875 -3.28125q0 -3.4375 3.234375 -3.4375q0.734375 0 2.21875 0.390625q1.5 0.375 3.0625 0.375q1.578125 0 3.84375 -0.5625q2.265625 -0.578125 4.59375 -1.78125q2.34375 -1.203125 3.78125 -3.5625076q1.4375 -2.359375 1.4375 -5.53125q0 -5.640625 -4.625 -10.5625q-4.609375 -4.921875 -12.859375 -4.921875q-1.84375 0 -2.46875 1.0625q-0.625 1.046875 -0.625 6.734375l-0.1875 39.656258q0 9.34375 4.75 9.90625q1.53125 0.1875 2.375 0.1875q4.78125 -0.359375 4.78125 3.921875q0 3.625 -4.25 3.625l-13.671875 -0.484375l-8.90625 0.390625q-5.015629 0 -5.015629 -3.0625q0 -3.015625 2.3437538 -3.890625q0.390625 -0.15625 0.65625 -0.28125q0.28125 -0.125 1.03125 -0.28125q0.765625 -0.15625 1.046875 -0.265625q0.28125 -0.109375 0.6875 -0.15625q0.40625 -0.046875 0.3125 0.015625q-0.078125 0.046875 -0.09375 0.03125q-0.015625 -0.03125 0.0625 -0.21875q0.09375 -0.1875 0.40625 -0.875q0.3125 -0.6875 0.765625 -1.984375q0.46875 -1.296875 0.84375 -13.703125q0.375 -12.40625 0.375 -19.281258zm48.753113 8.531258l-1.046875 -0.09375q-3.734375 0 -3.734375 -3.546875q0 -2.390625 1.953125 -3.1875q1.953125 -0.7968826 5.4375 -1.8906326q3.5 -1.109375 5.65625 -2.078125q2.15625 -0.984375 2.96875 -0.984375q3.25 0 3.25 3.953125l-0.09375 2.5937576q0 2.78125 -0.53125 2.984375q-0.515625 0.1875 -0.75 0.21875q-0.234375 0.03125 0.484375 -2.125q0.734375 -2.15625 3.421875 -4.4531326q2.703125 -2.3125 5.625 -2.3125q2.921875 0 6.015625 2.046875q3.109375 2.0468826 3.109375 4.4375076q0 2.390625 -1.03125 4.203125q-1.9375 3.296875 -4.234375 3.296875q-1.3125 0 -3.28125 -1.140625q-1.96875 -1.15625 -3.90625 -1.15625q-1.921875 0 -3.578125 1.546875q-1.640625 1.546875 -1.640625 2.40625l0 9.96875l0.109375 8.296875l0.09375 1.75q0 1.265625 0.84375 2.171875q0.84375 0.90625 1.671875 1.046875q0.828125 0.125 1.65625 0.21875q0.84375 0.09375 1.4375 0.15625q0.59375 0.046875 1.25 0.28125q2.546875 0.453125 2.546875 3.484375q0 3.03125 -3.21875 3.03125l-8.109375 -0.46875l-9.921875 0.46875q-3.03125 0 -3.59375 -1.140625q-0.5625 -1.15625 -0.5625 -2.0q0 -2.71875 2.71875 -3.578125q1.421875 -0.328125 1.75 -1.484375q0.328125 -1.171875 0.328125 -7.03125l-0.09375 -15.4375l-0.09375 -2.875q0 -0.671875 -0.140625 -0.96875q-0.25 -0.609375 -2.765625 -0.609375zm56.23436 36.578125q-10.640625 0 -17.015625 -6.890625q-6.359375 -6.90625 -6.359375 -16.421875q0 -9.515625 6.5625 -16.65625q6.5625 -7.1406326 17.203125 -7.1406326q10.640625 0 17.9375 6.2031326q7.3125 6.203125 7.3125 17.203125q0 11.0 -7.5 17.359375q-7.484375 6.34375 -18.140625 6.34375zm-1.03125 -40.515625q-4.15625 0 -7.46875 3.359375q-3.296875 3.34375 -3.296875 11.578125q0 8.21875 4.71875 13.453125q4.734375 5.234375 9.9375 5.234375q5.203125 0 8.390625 -3.546875q3.1875 -3.5625 3.1875 -10.921875q0 -7.375 -4.125 -13.265625q-4.125 -5.890625 -11.34375 -5.890625zm34.031982 3.171875l-1.828125 0.09375q-3.671875 0 -3.671875 -3.34375q0 -1.9375 1.6875 -3.2656326q3.4375 -2.25 6.84375 -6.75q1.59375 -2.28125 2.84375 -3.65625q1.25 -1.390625 3.65625 -1.390625q2.40625 0 2.40625 4.28125q0 0 -0.390625 5.484375q0 0.078125 -0.21875 -0.03125q-0.203125 -0.125 2.15625 -0.125l3.359375 0q3.84375 0 4.390625 -0.265625q2.15625 -1.078125 3.015625 -1.078125q2.953125 0 2.953125 3.046875q0 1.2812576 -1.671875 4.2812576q-1.65625 3.0 -3.40625 3.0q-4.421875 0 -6.1875 -0.203125q-1.765625 -0.203125 -2.34375 -0.25q-0.578125 -0.046875 -0.96875 -0.078125q-0.390625 -0.046875 -0.953125 -0.046875l0.078125 -1.234375q-0.734375 1.140625 -0.703125 1.109375q0.03125 -0.046875 0.03125 1.21875l-0.390625 17.859375q0 5.625 1.125 7.375q1.140625 1.734375 5.140625 1.734375q1.65625 0 4.09375 -0.90625q2.453125 -0.90625 3.0 -0.90625q2.96875 0 2.96875 2.796875q0 2.796875 -4.03125 5.3125q-4.015625 2.5 -8.4375 2.5q-14.953125 0 -14.953125 -13.21875l0 -1.46875l0.375 -22.359375q0.109375 0 0.34375 0.25q0.234375 0.234375 -0.3125 0.234375zm32.831985 0l-1.828125 0.09375q-3.671875 0 -3.671875 -3.34375q0 -1.9375 1.6875 -3.2656326q3.4375 -2.25 6.84375 -6.75q1.59375 -2.28125 2.84375 -3.65625q1.25 -1.390625 3.65625 -1.390625q2.40625 0 2.40625 4.28125q0 0 -0.390625 5.484375q0 0.078125 -0.21875 -0.03125q-0.203125 -0.125 2.15625 -0.125l3.359375 0q3.84375 0 4.390625 -0.265625q2.15625 -1.078125 3.015625 -1.078125q2.953125 0 2.953125 3.046875q0 1.2812576 -1.671875 4.2812576q-1.65625 3.0 -3.40625 3.0q-4.421875 0 -6.1875 -0.203125q-1.765625 -0.203125 -2.34375 -0.25q-0.578125 -0.046875 -0.96875 -0.078125q-0.390625 -0.046875 -0.953125 -0.046875l0.078125 -1.234375q-0.734375 1.140625 -0.703125 1.109375q0.03125 -0.046875 0.03125 1.21875l-0.390625 17.859375q0 5.625 1.125 7.375q1.140625 1.734375 5.140625 1.734375q1.65625 0 4.09375 -0.90625q2.453125 -0.90625 3.0 -0.90625q2.96875 0 2.96875 2.796875q0 2.796875 -4.03125 5.3125q-4.015625 2.5 -8.4375 2.5q-14.953125 0 -14.953125 -13.21875l0 -1.46875l0.375 -22.359375q0.109375 0 0.34375 0.25q0.234375 0.234375 -0.3125 0.234375zm42.67572 37.046875q-13.328125 0 -13.328125 -11.59375q0 -8.21875 6.96875 -11.328125q5.03125 -2.140625 15.0 -3.78125q0.34375 -0.109375 0.890625 -0.15625q0.546875 -0.0625 0.96875 -0.140625q0.421875 -0.078125 0.5 -0.109375q0.265625 0.859375 -0.625 0.484375l0.203125 -4.984375q0 -4.4375 -2.515625 -6.375q-2.515625 -1.953125 -4.796875 -1.953125q-4.921875 0 -4.921875 3.65625l0.390625 3.453125q0 4.03125 -3.734375 4.03125q-1.640625 0 -3.5625 -0.578125q-4.390625 -1.40625 -4.390625 -5.171875q0 -4.796875 5.734375 -8.671883q5.75 -3.875 11.296875 -3.875q5.5625 0 8.78125 1.0625q3.2187805 1.0625 4.9531555 2.5625q1.734375 1.5000076 2.671875 3.9843826q1.09375 2.75 1.09375 8.109375q0 5.34375 -0.234375 9.328125q-0.234375 3.984375 -0.234375 7.046875q0 3.046875 0.5625 4.59375q0.578125 1.546875 1.125 1.84375q0.546875 0.296875 1.171875 0.34375q4.4375 0.328125 4.4375 3.53125q0 4.015625 -8.0625 4.015625q-3.15625 0 -5.359375 -1.65625q-2.2031555 -1.671875 -2.3125305 -3.484375q-0.09375 -1.8125 0 -1.734375q0.09375 0.078125 -0.046875 1.234375q-0.125 1.15625 -1.421875 2.09375q-1.296875 0.9375 -2.90625 1.84375q-4.0 2.375 -8.296875 2.375zm11.890625 -21.40625l-0.765625 0.15625q-2.25 0.390625 -2.796875 0.484375q-0.546875 0.09375 -2.53125 0.546875q-1.96875 0.453125 -2.671875 0.78125q-0.6875 0.3125 -1.96875 1.015625q-1.265625 0.6875 -1.625 1.171875q-1.375 2.125 -1.375 4.390625q0 2.265625 1.34375 3.640625q1.34375 1.375 3.734375 1.375q2.40625 0 3.78125 -0.59375q1.390625 -0.59375 1.953125 -1.21875q0.578125 -0.640625 0.921875 -1.84375q0.484375 -1.546875 0.484375 -4.125l0 -6.921875q1.328125 -0.1875 1.515625 1.140625zm49.912262 -20.59375l0.390625 5.765625q0 2.296875 -0.84375 3.578125q-0.84375 1.265625 -2.6875 1.265625q-1.828125 0 -2.9375 -1.875q-1.09375 -1.875 -1.96875 -3.296875q-0.875 -1.421875 -2.6875 -2.53125q-1.8125 -1.125 -4.078125 -1.125q-2.25 0 -3.421875 0.890625q-1.15625 0.875 -1.15625 1.875q0 1.0 0.1875 1.640625q0.1875 0.640625 0.71875 1.21875q0.546875 0.578125 0.9375 0.96875q0.40625 0.390625 1.453125 0.890625q1.046875 0.484375 1.640625 0.71875q0.59375 0.21875 2.03125 0.78125q9.203125 3.25 12.109375 6.671875q2.90625 3.40625 2.90625 9.6875q0 6.28125 -5.765625 11.5q-4.046875 3.46875 -10.828125 3.46875q-4.5 0 -9.953125 -2.15625q-1.28125 -0.515625 -1.5 -0.546875q-0.203125 -0.046875 -0.734375 -0.234375q-0.53125 -0.1875 -0.84375 -0.25q-0.296875 -0.0625 -0.953125 -0.390625q-0.640625 -0.328125 -0.96875 -0.640625q-0.3125 -0.328125 -0.65625 -0.84375q-0.59375 -1.015625 -0.59375 -2.59375l0 -8.359375q0 -1.59375 0.859375 -3.03125q0.859375 -1.453125 2.6875 -1.453125q1.828125 0 2.609375 1.0q0.78125 1.0 1.078125 2.4375q0.3125 1.4375 0.53125 1.859375q3.078125 7.65625 8.15625 7.65625q2.421875 0 4.375 -1.15625q1.96875 -1.15625 1.96875 -3.5625q0 -2.40625 -1.75 -4.078125q-1.75 -1.6875 -4.75 -2.8125q-2.984375 -1.140625 -6.390625 -2.53125q-3.390625 -1.390625 -6.0 -4.390625q-2.609375 -3.0 -2.609375 -7.59375q0 -6.375 4.984375 -10.140633q4.984375 -3.765625 10.65625 -3.765625q5.671875 0 8.796875 0.953125q3.140625 0.9375 4.0625 2.140625q0.9375 1.1875 0.9375 2.3906326zm33.62909 -2.8125076l-0.09375 -16.328125q0 -1.984375 -1.1875 -3.828125q-1.171875 -1.84375 -3.8125 -1.84375q-3.921875 0 -3.921875 -3.25q0 -3.53125 4.171875 -3.53125l3.609375 -0.09375l5.765625 0.28125l15.796875 -0.28125q9.65625 0 16.875 5.03125q7.21875 5.03125 7.21875 14.625q0 5.140625 -1.921875 9.234375q-1.90625 4.0937576 -4.625 6.4375076q-2.703125 2.34375 -6.046875 3.90625q-5.296875 2.390625 -9.46875 2.390625q-4.15625 0 -8.21875 -0.921875q-4.046875 -0.921875 -4.046875 -3.28125q0 -3.4375 3.234375 -3.4375q0.734375 0 2.21875 0.390625q1.5 0.375 3.0625 0.375q1.578125 0 3.84375 -0.5625q2.265625 -0.578125 4.59375 -1.78125q2.34375 -1.203125 3.78125 -3.5625076q1.4375 -2.359375 1.4375 -5.53125q0 -5.640625 -4.625 -10.5625q-4.609375 -4.921875 -12.859375 -4.921875q-1.84375 0 -2.46875 1.0625q-0.625 1.046875 -0.625 6.734375l-0.1875 39.656258q0 9.34375 4.75 9.90625q1.53125 0.1875 2.375 0.1875q4.78125 -0.359375 4.78125 3.921875q0 3.625 -4.25 3.625l-13.671875 -0.484375l-8.90625 0.390625q-5.015625 0 -5.015625 -3.0625q0 -3.015625 2.34375 -3.890625q0.390625 -0.15625 0.65625 -0.28125q0.28125 -0.125 1.03125 -0.28125q0.765625 -0.15625 1.046875 -0.265625q0.28125 -0.109375 0.6875 -0.15625q0.40625 -0.046875 0.3125 0.015625q-0.078125 0.046875 -0.09375 0.03125q-0.015625 -0.03125 0.0625 -0.21875q0.09375 -0.1875 0.40625 -0.875q0.3125 -0.6875 0.765625 -1.984375q0.46875 -1.296875 0.84375 -13.703125q0.375 -12.40625 0.375 -19.281258zm59.799988 44.812508q-13.328125 0 -13.328125 -11.59375q0 -8.21875 6.96875 -11.328125q5.03125 -2.140625 15.0 -3.78125q0.34375 -0.109375 0.890625 -0.15625q0.546875 -0.0625 0.96875 -0.140625q0.421875 -0.078125 0.5 -0.109375q0.265625 0.859375 -0.625 0.484375l0.203125 -4.984375q0 -4.4375 -2.515625 -6.375q-2.515625 -1.953125 -4.796875 -1.953125q-4.921875 0 -4.921875 3.65625l0.390625 3.453125q0 4.03125 -3.734375 4.03125q-1.640625 0 -3.5625 -0.578125q-4.390625 -1.40625 -4.390625 -5.171875q0 -4.796875 5.734375 -8.671883q5.75 -3.875 11.296875 -3.875q5.5625 0 8.78125 1.0625q3.21875 1.0625 4.953125 2.5625q1.734375 1.5000076 2.671875 3.9843826q1.09375 2.75 1.09375 8.109375q0 5.34375 -0.234375 9.328125q-0.234375 3.984375 -0.234375 7.046875q0 3.046875 0.5625 4.59375q0.578125 1.546875 1.125 1.84375q0.546875 0.296875 1.171875 0.34375q4.4375 0.328125 4.4375 3.53125q0 4.015625 -8.0625 4.015625q-3.15625 0 -5.359375 -1.65625q-2.203125 -1.671875 -2.3125 -3.484375q-0.09375 -1.8125 0 -1.734375q0.09375 0.078125 -0.046875 1.234375q-0.125 1.15625 -1.421875 2.09375q-1.296875 0.9375 -2.90625 1.84375q-4.0 2.375 -8.296875 2.375zm11.890625 -21.40625l-0.765625 0.15625q-2.25 0.390625 -2.796875 0.484375q-0.546875 0.09375 -2.53125 0.546875q-1.96875 0.453125 -2.671875 0.78125q-0.6875 0.3125 -1.96875 1.015625q-1.265625 0.6875 -1.625 1.171875q-1.375 2.125 -1.375 4.390625q0 2.265625 1.34375 3.640625q1.34375 1.375 3.734375 1.375q2.40625 0 3.78125 -0.59375q1.390625 -0.59375 1.953125 -1.21875q0.578125 -0.640625 0.921875 -1.84375q0.484375 -1.546875 0.484375 -4.125l0 -6.921875q1.328125 -0.1875 1.515625 1.140625zm31.693481 20.359375l-6.78125 0.1875q-5.875 0 -5.875 -3.015625q0 -3.015625 3.109375 -4.0625q0.328125 1.390625 0.09375 0q1.34375 -0.46875 1.75 -1.40625q0.421875 -0.953125 0.421875 -13.875l0 -8.4375q0 -2.40625 -0.484375 -3.5625q-0.484375 -1.171875 -0.640625 -1.265625q-0.140625 -0.09375 -1.421875 -0.3125q-1.265625 -0.21875 -2.625 -0.734375q-1.359375 -0.53125 -1.359375 -2.125q0 -1.59375 0.625 -2.3125q0.625 -0.71875 1.5625 -1.15625q0.953125 -0.45313263 1.859375 -0.7968826q2.640625 -0.765625 4.3125 -1.5q1.671875 -0.75 2.5 -1.09375q0.84375 -0.34375 1.140625 -0.546875q1.21875 -0.515625 2.578125 -0.515625q3.4375 0 3.4375 3.953125l-0.578125 4.5937576l0 26.1875q0 2.359375 0.609375 3.453125q0.609375 1.078125 1.140625 1.28125q0.53125 0.203125 1.6875 0.296875q1.171875 0.078125 1.625 0.078125q3.203125 0.453125 3.203125 3.34375q0 3.625 -3.703125 3.625l-1.46875 -0.09375l-6.71875 -0.1875zm-1.640625 -51.562508q-2.953125 0 -4.828125 -2.703125q-1.875 -2.703125 -1.875 -4.671875q0 -1.96875 2.203125 -4.671875q2.203125 -2.703125 4.671875 -2.703125q2.484375 0 4.40625 2.640625q1.9375 2.640625 1.9375 4.921875q0 2.265625 -2.40625 4.734375q-2.390625 2.453125 -4.109375 2.453125zm37.388977 51.171883l-7.015625 -0.390625q-2.3905945 0 -6.4687195 0.203125l-4.171875 0.1875q-3.484375 0 -3.484375 -2.546875q0 -2.546875 1.21875 -3.03125q1.234375 -0.484375 1.828125 -0.5625q0.59375 -0.078125 0.90625 -0.296875q0.96875 -0.625 1.140625 -5.875q0.1875 -5.265625 0.1875 -7.0625l0 -13.828125q0 -2.21875 -0.515625 -2.703125q-0.5 -0.484375 -1.609375 -0.484375l-0.96875 0q-3.828125 0 -3.828125 -3.046875q0 -2.7187576 2.859375 -3.1093826q2.875 -0.390625 3.9375 -0.6875q1.078125 -0.296875 2.96875 -1.078125q1.890625 -0.796875 3.265625 -1.453125q1.390625 -0.671875 2.21875 -0.671875l0.203125 0q2.8593445 0 2.8593445 3.203125l-0.1875 4.1250076q-1.234375 1.6875 -1.546875 1.453125q-0.296875 -0.25 -0.921875 -0.6875q1.6875 -2.3125 4.40625 -3.9531326q4.796875 -2.984375 9.203125 -2.984375q4.40625 0 7.859375 1.359375q3.453125 1.34375 5.4375 3.3906326q1.984375 2.03125 3.296875 4.609375q2.109375 4.265625 2.109375 8.765625l0 0.953125l0.109375 5.078125l0 9.8125q0 3.0 0.5625 3.796875q0.578125 0.78125 3.578125 1.234375q3.625 0.53125 3.625 3.421875q0 2.953125 -3.984375 2.953125l-7.8125 -0.484375l-7.34375 0.390625q-3.953125 0 -3.953125 -3.25q0 -2.40625 2.671875 -3.09375l1.1875 -0.28125q0.640625 -0.203125 0.640625 -4.5l0 -12.953125q0 -6.578125 -3.078125 -9.78125q-3.078125 -3.203125 -6.9375 -3.203125q-3.84375 0 -6.40625 1.84375q-2.5625 1.828125 -3.078125 3.296875q-0.5 1.46875 -0.5 13.890625l0 3.640625q0 4.390625 0.6875 5.96875q0.6875 1.5625 2.875 1.734375q1.09375 0 3.46875 0.546875q2.375 0.53125 2.375 2.890625q0 3.25 -3.875 3.25zm38.11975 -35.609375l-1.828125 0.09375q-3.671875 0 -3.671875 -3.34375q0 -1.9375 1.6875 -3.2656326q3.4375 -2.25 6.84375 -6.75q1.59375 -2.28125 2.84375 -3.65625q1.25 -1.390625 3.65625 -1.390625q2.40625 0 2.40625 4.28125q0 0 -0.390625 5.484375q0 0.078125 -0.21875 -0.03125q-0.203125 -0.125 2.15625 -0.125l3.359375 0q3.84375 0 4.390625 -0.265625q2.15625 -1.078125 3.015625 -1.078125q2.953125 0 2.953125 3.046875q0 1.2812576 -1.671875 4.2812576q-1.65625 3.0 -3.40625 3.0q-4.421875 0 -6.1875 -0.203125q-1.765625 -0.203125 -2.34375 -0.25q-0.578125 -0.046875 -0.96875 -0.078125q-0.390625 -0.046875 -0.953125 -0.046875l0.078125 -1.234375q-0.734375 1.140625 -0.703125 1.109375q0.03125 -0.046875 0.03125 1.21875l-0.390625 17.859375q0 5.625 1.125 7.375q1.140625 1.734375 5.140625 1.734375q1.65625 0 4.09375 -0.90625q2.453125 -0.90625 3.0 -0.90625q2.96875 0 2.96875 2.796875q0 2.796875 -4.03125 5.3125q-4.015625 2.5 -8.4375 2.5q-14.953125 0 -14.953125 -13.21875l0 -1.46875l0.375 -22.359375q0.109375 0 0.34375 0.25q0.234375 0.234375 -0.3125 0.234375zm42.003906 36.0l-6.78125 0.1875q-5.875 0 -5.875 -3.015625q0 -3.015625 3.109375 -4.0625q0.328125 1.390625 0.09375 0q1.34375 -0.46875 1.75 -1.40625q0.421875 -0.953125 0.421875 -13.875l0 -8.4375q0 -2.40625 -0.484375 -3.5625q-0.484375 -1.171875 -0.640625 -1.265625q-0.140625 -0.09375 -1.421875 -0.3125q-1.265625 -0.21875 -2.625 -0.734375q-1.359375 -0.53125 -1.359375 -2.125q0 -1.59375 0.625 -2.3125q0.625 -0.71875 1.5625 -1.15625q0.953125 -0.45313263 1.859375 -0.7968826q2.640625 -0.765625 4.3125 -1.5q1.671875 -0.75 2.5 -1.09375q0.84375 -0.34375 1.140625 -0.546875q1.21875 -0.515625 2.578125 -0.515625q3.4375 0 3.4375 3.953125l-0.578125 4.5937576l0 26.1875q0 2.359375 0.609375 3.453125q0.609375 1.078125 1.140625 1.28125q0.53125 0.203125 1.6875 0.296875q1.171875 0.078125 1.625 0.078125q3.203125 0.453125 3.203125 3.34375q0 3.625 -3.703125 3.625l-1.46875 -0.09375l-6.71875 -0.1875zm-1.640625 -51.562508q-2.953125 0 -4.828125 -2.703125q-1.875 -2.703125 -1.875 -4.671875q0 -1.96875 2.203125 -4.671875q2.203125 -2.703125 4.671875 -2.703125q2.484375 0 4.40625 2.640625q1.9375 2.640625 1.9375 4.921875q0 2.265625 -2.40625 4.734375q-2.390625 2.453125 -4.109375 2.453125zm37.388916 51.171883l-7.015625 -0.390625q-2.390625 0 -6.46875 0.203125l-4.171875 0.1875q-3.484375 0 -3.484375 -2.546875q0 -2.546875 1.21875 -3.03125q1.234375 -0.484375 1.828125 -0.5625q0.59375 -0.078125 0.90625 -0.296875q0.96875 -0.625 1.140625 -5.875q0.1875 -5.265625 0.1875 -7.0625l0 -13.828125q0 -2.21875 -0.515625 -2.703125q-0.5 -0.484375 -1.609375 -0.484375l-0.96875 0q-3.828125 0 -3.828125 -3.046875q0 -2.7187576 2.859375 -3.1093826q2.875 -0.390625 3.9375 -0.6875q1.078125 -0.296875 2.96875 -1.078125q1.890625 -0.796875 3.265625 -1.453125q1.390625 -0.671875 2.21875 -0.671875l0.203125 0q2.859375 0 2.859375 3.203125l-0.1875 4.1250076q-1.234375 1.6875 -1.546875 1.453125q-0.296875 -0.25 -0.921875 -0.6875q1.6875 -2.3125 4.40625 -3.9531326q4.796875 -2.984375 9.203125 -2.984375q4.40625 0 7.859375 1.359375q3.453125 1.34375 5.4375 3.3906326q1.984375 2.03125 3.296875 4.609375q2.109375 4.265625 2.109375 8.765625l0 0.953125l0.109375 5.078125l0 9.8125q0 3.0 0.5625 3.796875q0.578125 0.78125 3.578125 1.234375q3.625 0.53125 3.625 3.421875q0 2.953125 -3.984375 2.953125l-7.8125 -0.484375l-7.34375 0.390625q-3.953125 0 -3.953125 -3.25q0 -2.40625 2.671875 -3.09375l1.1875 -0.28125q0.640625 -0.203125 0.640625 -4.5l0 -12.953125q0 -6.578125 -3.078125 -9.78125q-3.078125 -3.203125 -6.9375 -3.203125q-3.84375 0 -6.40625 1.84375q-2.5625 1.828125 -3.078125 3.296875q-0.5 1.46875 -0.5 13.890625l0 3.640625q0 4.390625 0.6875 5.96875q0.6875 1.5625 2.875 1.734375q1.09375 0 3.46875 0.546875q2.375 0.53125 2.375 2.890625q0 3.25 -3.875 3.25zm44.99475 18.96875q-4.078125 -0.890625 -7.65625 -3.84375q-3.5625 -2.9375 -3.5625 -7.078125q0 -4.140625 2.125 -6.328125q2.125 -2.1875 4.0625 -2.46875q1.9375 -0.296875 1.8125 -0.046875q-0.109375 0.234375 -0.6875 0.421875q-0.5625 0.171875 -1.234375 -0.3125q-2.34375 -1.890625 -2.34375 -5.5625q0 -3.6875 1.46875 -6.171875q1.484375 -2.5 2.78125 -3.234375q1.296875 -0.75 1.296875 -0.40625q0 0.328125 -0.9375 -0.109375q-0.9375 -0.4375 -2.375 -1.703125q-1.4375 -1.28125 -2.609375 -4.21875q-1.15625 -2.953125 -1.15625 -6.125q0 -3.1875 0.8125 -5.71875q0.8125 -2.546875 2.734375 -5.359375q1.921875 -2.8125076 5.875 -4.5312576q3.96875 -1.734375 8.609375 -1.734375q4.65625 0 7.65625 1.078125q3.0 1.0625 4.140625 1.90625q1.140625 0.84375 1.1875 0.84375q0.046875 0 3.796875 -1.5625q0.515625 -0.21875 1.265625 -2.484375q0.765625 -2.28125 2.984375 -2.28125q3.234375 0 3.234375 2.765625q0 2.5625 -0.75 5.4843826q-0.734375 2.90625 -1.953125 4.796875q-1.21875 1.890625 -2.796875 2.546875q0.515625 1.40625 0.515625 3.6875q0 7.015625 -5.21875 11.8125q-5.21875 4.78125 -12.625 4.78125q-2.6875 0 -4.9375 -0.4375q-2.25 -0.4375 -2.46875 -0.4375q-0.21875 0 -0.59375 0.09375q-0.375 0.09375 -1.046875 0.765625q-0.65625 0.65625 -0.65625 1.84375q0 1.765625 2.109375 2.390625q2.109375 0.609375 8.75 0.609375l4.40625 0q15.921875 0 15.921875 10.453125q0 3.390625 -0.828125 5.265625q-2.078125 5.390625 -8.296875 8.453125q-6.21875 3.0625 -14.1875 3.0625q-4.53125 0 -8.625 -0.90625zm-1.65625 -12.234375q0 3.09375 2.828125 4.8125q2.84375 1.734375 7.875 1.734375q5.046875 0 9.046875 -2.0625q4.0 -2.046875 4.0 -4.671875q0 -1.90625 -1.828125 -2.390625q-2.34375 -0.515625 -6.828125 -0.515625l-0.875 0q-3.21875 0 -7.78125 -0.6875l-4.171875 -0.65625q0.078125 0 -1.09375 1.296875q-1.171875 1.3125 -1.171875 3.140625zm10.9375 -46.1875q-3.078125 0 -5.046875 2.390625q-1.953125 2.375 -1.953125 7.359375q0 4.984375 2.25 8.140625q2.25 3.15625 5.4375 3.15625q3.1875 0 5.015625 -2.625q1.828125 -2.625 1.828125 -7.09375q0 -4.484375 -2.234375 -7.90625q-2.21875 -3.421875 -5.296875 -3.421875z" fill-rule="nonzero"/></g><path fill="#000000" d="m135.11522 9.898977l13.606293 23.433073l-113.00787 65.60629l-13.6063 -23.433067z" fill-rule="evenodd"/><path fill="#000000" d="m121.664116 33.448208l13.511818 -23.496063l113.291336 65.13386l-13.51181 23.496063z" fill-rule="evenodd"/><path fill="#000000" d="m22.10761 75.83967l27.118113 0l0 101.196846l-27.118113 0z" fill-rule="evenodd"/><path fill="#000000" d="m221.34908 75.8399l27.118118 0l0 31.401573l-27.118118 0z" fill-rule="evenodd"/><path fill="#000000" fill-opacity="0.0" d="m119.17716 63.619423l31.401573 0l0 31.401573l-31.401573 0z" fill-rule="evenodd"/><path stroke="#000000" stroke-width="4.0" stroke-linejoin="round" stroke-linecap="butt" d="m119.17716 63.619423l31.401573 0l0 31.401573l-31.401573 0z" fill-rule="evenodd"/><path fill="#000000" fill-opacity="0.0" d="m134.87534 63.619423l0 31.401573" fill-rule="evenodd"/><path stroke="#000000" stroke-width="4.0" stroke-linejoin="round" stroke-linecap="butt" d="m134.87534 63.619423l0 31.401573" fill-rule="evenodd"/><path fill="#000000" fill-opacity="0.0" d="m119.58662 79.32021l31.401573 0" fill-rule="evenodd"/><path stroke="#000000" stroke-width="4.0" stroke-linejoin="round" stroke-linecap="butt" d="m119.58662 79.32021l31.401573 0" fill-rule="evenodd"/><path fill="#000000" fill-opacity="0.0" d="m134.87796 63.619423l0 0" fill-rule="evenodd"/><path stroke="#000000" stroke-width="1.0" stroke-linejoin="round" stroke-linecap="butt" d="m134.87796 63.619423l0 0" fill-rule="evenodd"/></g></svg>