<?xml version="1.0" encoding="UTF-8" standalone="no"?>
<svg
   xmlns:dc="http://purl.org/dc/elements/1.1/"
   xmlns:cc="http://creativecommons.org/ns#"
   xmlns:rdf="http://www.w3.org/1999/02/22-rdf-syntax-ns#"
   xmlns:svg="http://www.w3.org/2000/svg"
   xmlns="http://www.w3.org/2000/svg"
   xmlns:sodipodi="http://sodipodi.sourceforge.net/DTD/sodipodi-0.dtd"
   xmlns:inkscape="http://www.inkscape.org/namespaces/inkscape"
   version="1.1"
   id="Capa_1"
   x="0px"
   y="0px"
   viewBox="0 0 207.5 463"
   xml:space="preserve"
   sodipodi:docname="rightBrain.svg"
   inkscape:version="1.0.1 (3bc2e813f5, 2020-09-07)"
   width="207.5"
   height="463"><metadata
   id="metadata49"><rdf:RDF><cc:Work
       rdf:about=""><dc:format>image/svg+xml</dc:format><dc:type
         rdf:resource="http://purl.org/dc/dcmitype/StillImage" /><dc:title></dc:title></cc:Work></rdf:RDF></metadata><defs
   id="defs47" /><sodipodi:namedview
   pagecolor="#ffffff"
   bordercolor="#666666"
   borderopacity="1"
   objecttolerance="10"
   gridtolerance="10"
   guidetolerance="10"
   inkscape:pageopacity="0"
   inkscape:pageshadow="2"
   inkscape:window-width="958"
   inkscape:window-height="1008"
   id="namedview45"
   showgrid="false"
   inkscape:zoom="1.2981442"
   inkscape:cx="-91.37754"
   inkscape:cy="179.92932"
   inkscape:window-x="953"
   inkscape:window-y="0"
   inkscape:window-maximized="0"
   inkscape:current-layer="g12"
   inkscape:document-rotation="0" />
<g
   id="g12"
   transform="translate(-231.5)">
	
	
	<path
   id="path59"
   d="M 231.5,16.384766 V 423.32617 c 11.731,23.493 36.005,39.67383 64,39.67383 25.535,0 48.88994,-13.4955 61.71094,-35.4375 C 386.68594,418.1775 407,390.643 407,359.5 c 0,-2.874 -0.17263,-5.75152 -0.51562,-8.60352 C 426.41338,339.74248 439,318.588 439,295.5 439,282.466 435.12811,270.08661 427.78711,259.47461 434.85111,249.24061 439,236.848 439,223.5 439,206.425 432.18,190.24375 420.125,178.34375 422.034,172.23575 423,165.918 423,159.5 423,128.626 400.84747,102.84188 371.60547,97.171875 373.84047,91.600875 375,85.628 375,79.5 375,59.943 363.11636,43.113844 346.19336,35.839844 317.99836,13.383844 287.162,0 263.5,0 250.347,0 238.683,6.4687652 231.5,16.384766 Z M 263.5,15 c 15.046,0 33.8912,6.630547 53.0332,18.310547 -13.657,3.284 -25.51525,12.559889 -31.78125,25.462891 -1.81,3.726998 -0.25725,8.213484 3.46875,10.021484 3.726,1.81 8.21344,0.256297 10.02344,-3.470703 C 303.73314,54.020219 314.943,47 327.5,47 c 4.053,0 7.93267,0.751281 11.51367,2.113281 0.422,0.22 0.85969,0.394344 1.30469,0.527344 C 351.88236,54.624625 360,66.13 360,79.5 c 0,5.921 -1.57614,11.626531 -4.57812,16.644531 C 322.30288,98.256531 296,125.858 296,159.5 c 0,4.143 3.358,7.5 7.5,7.5 4.142,0 7.5,-3.357 7.5,-7.5 0,-26.743 21.757,-48.5 48.5,-48.5 26.743,0 48.5,21.757 48.5,48.5 0,6.244 -1.19941,12.36908 -3.56641,18.20508 -1.225,3.02 -0.36132,6.48422 2.13868,8.57422 C 417.64727,195.5363 424,209.104 424,223.5 c 0,26.743 -21.757,48.5 -48.5,48.5 -4.142,0 -7.5,3.357 -7.5,7.5 0,4.143 3.358,7.5 7.5,7.5 16.064,0 30.74345,-6.00791 41.93945,-15.87891 4.306,7.365 6.56055,15.67991 6.56055,24.37891 0,19.126 -11.32084,36.51764 -28.83984,44.30664 -3.215,1.43 -5.00279,4.90161 -4.30078,8.34961 0.757,3.718 1.14062,7.5357 1.14062,11.3457 0,25.461 -17.18973,47.86819 -41.80273,54.49219 -2.017,0.543 -3.7155,1.901 -4.6875,3.75 C 335.69177,436.40514 316.529,448 295.5,448 264.346,448 239,422.654 239,391.5 c 0,-2.109 -0.0983,-4.20048 -0.28125,-6.27148 0.178,-0.641 0.28125,-1.31372 0.28125,-2.01172 V 135.5 c 0,-13.51 10.991,-24.5 24.5,-24.5 4.142,0 7.5,-3.357 7.5,-7.5 0,-4.143 -3.358,-7.5 -7.5,-7.5 -9.25,0 -17.761,3.204782 -24.5,8.55078 V 39.5 C 239,25.99 249.991,15 263.5,15 Z" />
	<path
   d="M 359.5,240 C 343.964,240 330.946,229.039 327.755,214.446 358.881,210.384 383,183.715 383,151.5 c 0,-4.143 -3.358,-7.5 -7.5,-7.5 -4.142,0 -7.5,3.357 -7.5,7.5 0,26.743 -21.757,48.5 -48.5,48.5 -13.143,0 -25.447,-5.171 -34.646,-14.561 -2.898,-2.958 -7.647,-3.007 -10.606,-0.108 -2.959,2.899 -3.008,7.647 -0.109,10.606 10.402,10.617 23.839,17.103 38.395,18.677 3.444,22.829 23.192,40.386 46.966,40.386 4.142,0 7.5,-3.357 7.5,-7.5 0,-4.143 -3.358,-7.5 -7.5,-7.5 z"
   id="path8" />
	<path
   d="m 335.5,328 c -2.89,0 -5.73,0.212 -8.519,0.588 0.006,-0.363 0.019,-0.726 0.019,-1.088 0,-35.014 -28.486,-63.5 -63.5,-63.5 -4.142,0 -7.5,3.357 -7.5,7.5 0,4.143 3.358,7.5 7.5,7.5 26.743,0 48.5,21.757 48.5,48.5 0,1.714 -0.091,3.434 -0.269,5.133 C 288.462,342.063 272,364.889 272,391.5 c 0,4.143 3.358,7.5 7.5,7.5 4.142,0 7.5,-3.357 7.5,-7.5 0,-26.743 21.757,-48.5 48.5,-48.5 4.142,0 7.5,-3.357 7.5,-7.5 0,-4.143 -3.358,-7.5 -7.5,-7.5 z"
   id="path10" />
</g>
<g
   id="g14"
   transform="translate(-231.5)">
</g>
<g
   id="g16"
   transform="translate(-231.5)">
</g>
<g
   id="g18"
   transform="translate(-231.5)">
</g>
<g
   id="g20"
   transform="translate(-231.5)">
</g>
<g
   id="g22"
   transform="translate(-231.5)">
</g>
<g
   id="g24"
   transform="translate(-231.5)">
</g>
<g
   id="g26"
   transform="translate(-231.5)">
</g>
<g
   id="g28"
   transform="translate(-231.5)">
</g>
<g
   id="g30"
   transform="translate(-231.5)">
</g>
<g
   id="g32"
   transform="translate(-231.5)">
</g>
<g
   id="g34"
   transform="translate(-231.5)">
</g>
<g
   id="g36"
   transform="translate(-231.5)">
</g>
<g
   id="g38"
   transform="translate(-231.5)">
</g>
<g
   id="g40"
   transform="translate(-231.5)">
</g>
<g
   id="g42"
   transform="translate(-231.5)">
</g>
</svg>
